<svg width="1056" height="776" viewBox="0 0 1056 776" fill="none" xmlns="http://www.w3.org/2000/svg">
<rect width="1056" height="776" fill="#1A1A1A"/>
<path d="M528 563C624.65 563 703 484.65 703 388C703 291.35 624.65 213 528 213C431.35 213 353 291.35 353 388C353 484.65 431.35 563 528 563Z" fill="#E8E8E8"/>
<path d="M528 563C624.65 563 703 484.65 703 388C703 291.35 624.65 213 528 213C431.35 213 353 291.35 353 388C353 484.65 431.35 563 528 563Z" fill="#E8E8E8"/>
<path d="M547.643 338.743C546.706 338.716 545.798 338.414 545.032 337.874C544.266 337.334 543.676 336.581 543.336 335.707C542.995 334.834 542.92 333.88 543.119 332.964C543.318 332.048 543.783 331.211 544.454 330.558C545.126 329.904 545.976 329.463 546.897 329.29C547.818 329.117 548.77 329.219 549.634 329.583C550.497 329.948 551.234 330.559 551.752 331.34C552.27 332.121 552.547 333.037 552.547 333.974C552.526 335.256 551.998 336.477 551.079 337.371C550.16 338.264 548.925 338.758 547.643 338.743ZM508.438 338.743C507.501 338.716 506.593 338.414 505.827 337.874C505.061 337.334 504.471 336.581 504.131 335.707C503.79 334.834 503.715 333.88 503.914 332.964C504.113 332.048 504.578 331.211 505.25 330.558C505.921 329.904 506.771 329.463 507.692 329.29C508.613 329.117 509.565 329.219 510.429 329.583C511.292 329.948 512.029 330.559 512.547 331.34C513.065 332.121 513.342 333.037 513.342 333.974C513.335 334.61 513.203 335.238 512.952 335.822C512.701 336.407 512.338 336.935 511.882 337.379C511.426 337.822 510.887 338.17 510.296 338.405C509.705 338.639 509.074 338.754 508.438 338.743ZM550.542 319.777L552.358 317.068L554.2 314.358L558.264 308.398C558.38 308.224 558.46 308.029 558.499 307.824C558.539 307.619 558.537 307.408 558.494 307.204C558.451 307 558.368 306.806 558.25 306.634C558.131 306.462 557.979 306.316 557.804 306.203C557.444 305.967 557.006 305.882 556.584 305.969C556.162 306.055 555.792 306.305 555.555 306.664L549.35 315.713L547.481 318.423C534.943 313.798 521.166 313.798 508.628 318.423L506.759 315.713L504.916 313.004L500.5 306.61C500.257 306.249 499.882 305.998 499.456 305.912C499.03 305.826 498.588 305.911 498.224 306.149C498.047 306.261 497.895 306.408 497.777 306.581C497.659 306.753 497.577 306.948 497.537 307.153C497.496 307.359 497.498 307.57 497.541 307.774C497.585 307.979 497.67 308.173 497.79 308.344L501.855 314.304L503.67 317.014L505.512 319.723C491.64 326.009 482.266 337.903 482.266 351.531H573.708C573.708 337.822 564.333 325.928 550.488 319.642L550.542 319.777ZM482.97 357.817H482.266V427.747C482.308 430.451 483.422 433.028 485.362 434.912C487.303 436.797 489.911 437.835 492.615 437.799H500.093C499.817 438.675 499.68 439.589 499.687 440.508V460.639C499.819 463.147 500.908 465.51 502.731 467.239C504.553 468.968 506.969 469.931 509.481 469.931C511.994 469.931 514.41 468.968 516.232 467.239C518.054 465.51 519.144 463.147 519.276 460.639V440.454C519.279 439.537 519.151 438.625 518.897 437.744H537.077C536.823 438.625 536.695 439.537 536.697 440.454V460.585C536.697 463.186 537.731 465.681 539.57 467.52C541.409 469.359 543.904 470.393 546.505 470.393C549.107 470.393 551.601 469.359 553.441 467.52C555.28 465.681 556.313 463.186 556.313 460.585V440.454C556.307 439.536 556.17 438.624 555.907 437.744H563.385C564.723 437.762 566.051 437.516 567.294 437.021C568.537 436.526 569.67 435.79 570.628 434.857C571.587 433.923 572.352 432.81 572.881 431.581C573.409 430.352 573.69 429.03 573.708 427.693V357.817H482.97ZM465.928 357.817C464.661 357.799 463.403 358.031 462.226 358.499C461.049 358.968 459.976 359.663 459.068 360.546C458.159 361.429 457.434 362.483 456.933 363.646C456.432 364.81 456.165 366.06 456.147 367.327V408.131C456.279 410.639 457.368 413.002 459.191 414.731C461.013 416.46 463.429 417.423 465.941 417.423C468.453 417.423 470.87 416.46 472.692 414.731C474.514 413.002 475.604 410.639 475.736 408.131V367.327C475.718 366.058 475.45 364.805 474.948 363.64C474.445 362.475 473.717 361.42 472.806 360.536C471.895 359.653 470.818 358.958 469.638 358.491C468.458 358.025 467.197 357.796 465.928 357.817V357.817ZM590.045 357.817C588.77 357.785 587.5 358.006 586.311 358.468C585.121 358.929 584.035 359.623 583.115 360.507C582.195 361.392 581.46 362.45 580.952 363.621C580.444 364.791 580.174 366.051 580.156 367.327V408.131C580.156 410.732 581.189 413.227 583.029 415.066C584.868 416.905 587.363 417.939 589.964 417.939C592.565 417.939 595.06 416.905 596.899 415.066C598.739 413.227 599.772 410.732 599.772 408.131V367.327C599.736 364.778 598.693 362.347 596.871 360.565C595.048 358.784 592.594 357.795 590.045 357.817V357.817Z" fill="#38AA71"/>
</svg>
