<svg width="1056" height="584" viewBox="0 0 1056 584" fill="none" xmlns="http://www.w3.org/2000/svg">
<rect width="1056" height="584" fill="#1A1A1A"/>
<path fill-rule="evenodd" clip-rule="evenodd" d="M528 145.544C472.938 145.544 428.285 190.185 428.285 245.259C428.285 289.314 456.855 326.692 496.477 339.876C501.459 340.799 503.29 337.713 503.29 335.078C503.29 332.702 503.196 324.846 503.154 316.516C475.411 322.546 469.559 304.75 469.559 304.75C465.023 293.224 458.487 290.158 458.487 290.158C449.44 283.971 459.166 284.097 459.166 284.097C469.181 284.8 474.455 294.374 474.455 294.374C483.347 309.618 497.782 305.21 503.47 302.662C504.368 296.217 506.951 291.815 509.803 289.326C487.655 286.806 464.372 278.254 464.372 240.046C464.372 229.16 468.267 220.265 474.647 213.281C473.611 210.768 470.198 200.624 475.612 186.89C475.612 186.89 483.984 184.213 503.034 197.116C510.991 194.906 519.523 193.797 527.995 193.76C536.47 193.799 545.006 194.908 552.975 197.116C572.006 184.216 580.369 186.892 580.369 186.892C585.797 200.627 582.384 210.768 581.348 213.283C587.742 220.263 591.609 229.16 591.609 240.049C591.609 278.346 568.282 286.778 546.077 289.244C549.654 292.338 552.841 298.408 552.841 307.713C552.841 321.053 552.729 331.79 552.729 335.074C552.729 337.722 554.524 340.835 559.577 339.855C599.177 326.655 627.71 289.291 627.71 245.249C627.715 190.188 583.071 145.544 528 145.544Z" fill="white"/>
<path d="M466.055 288.71C465.832 289.207 465.052 289.354 464.344 289.014C463.617 288.686 463.214 288.014 463.448 287.514C463.659 287.008 464.442 286.865 465.166 287.205C465.893 287.533 466.305 288.213 466.057 288.71H466.055ZM470.093 293.219C469.617 293.657 468.687 293.453 468.054 292.755C467.402 292.059 467.28 291.128 467.763 290.683C468.251 290.243 469.153 290.449 469.802 291.145C470.459 291.848 470.587 292.769 470.091 293.217L470.093 293.219ZM474.023 298.957C473.414 299.383 472.413 298.985 471.797 298.096C471.183 297.213 471.183 296.151 471.809 295.722C472.427 295.296 473.412 295.68 474.035 296.559C474.649 297.461 474.649 298.528 474.023 298.959V298.957ZM479.409 304.507C478.863 305.109 477.698 304.947 476.848 304.125C475.976 303.321 475.734 302.179 476.28 301.577C476.836 300.975 478.005 301.143 478.863 301.959C479.73 302.76 479.993 303.904 479.409 304.504V304.507ZM486.844 307.727C486.6 308.51 485.48 308.864 484.35 308.533C483.22 308.191 482.484 307.277 482.709 306.489C482.944 305.702 484.073 305.334 485.21 305.688C486.335 306.025 487.073 306.93 486.841 307.727H486.844ZM495 308.325C495.03 309.145 494.072 309.829 492.886 309.843C491.695 309.871 490.73 309.206 490.716 308.395C490.716 307.565 491.653 306.89 492.844 306.871C494.03 306.848 495 307.509 495 308.325ZM502.594 307.033C502.734 307.835 501.914 308.66 500.735 308.878C499.577 309.093 498.509 308.596 498.359 307.8C498.218 306.979 499.055 306.159 500.21 305.943C501.389 305.737 502.444 306.22 502.594 307.035V307.033Z" fill="white"/>
<path d="M436.254 395.833H411.176C410.865 395.833 410.567 395.956 410.347 396.176C410.127 396.396 410.004 396.694 410.004 397.005V409.267C410.004 409.578 410.127 409.876 410.347 410.096C410.567 410.316 410.865 410.439 411.176 410.439H420.956V425.674C420.956 425.674 418.76 426.424 412.683 426.424C405.52 426.424 395.51 423.808 395.51 401.796C395.51 379.781 405.935 376.881 415.723 376.881C424.193 376.881 427.84 378.372 430.165 379.092C430.891 379.312 431.571 378.585 431.571 377.938L434.367 366.091C434.372 365.913 434.333 365.738 434.255 365.578C434.176 365.419 434.061 365.281 433.917 365.177C432.973 364.502 427.221 361.286 412.688 361.286C395.944 361.286 378.769 368.406 378.769 402.653C378.769 436.896 398.433 441.998 415.003 441.998C428.723 441.998 437.046 436.134 437.046 436.134C437.388 435.946 437.426 435.466 437.426 435.243V397.003C437.426 396.692 437.302 396.394 437.083 396.174C436.863 395.954 436.565 395.831 436.254 395.831V395.833ZM564.342 364.211H550.219C550.065 364.212 549.912 364.243 549.77 364.302C549.628 364.362 549.499 364.449 549.391 364.559C549.282 364.668 549.197 364.798 549.138 364.941C549.08 365.083 549.051 365.236 549.052 365.39L549.056 392.681H527.044V365.39C527.045 365.236 527.015 365.084 526.957 364.941C526.899 364.799 526.814 364.669 526.706 364.559C526.597 364.45 526.469 364.363 526.327 364.303C526.185 364.243 526.033 364.212 525.879 364.211H511.758C511.604 364.212 511.451 364.243 511.309 364.302C511.167 364.362 511.038 364.449 510.93 364.559C510.821 364.668 510.736 364.798 510.677 364.941C510.619 365.083 510.59 365.236 510.591 365.39V439.288C510.591 439.938 511.116 440.467 511.758 440.467H525.879C526.033 440.466 526.185 440.435 526.327 440.375C526.469 440.315 526.598 440.228 526.706 440.118C526.815 440.009 526.9 439.879 526.958 439.736C527.016 439.593 527.045 439.44 527.044 439.286V407.678H549.056L549.019 439.286C549.019 439.938 549.544 440.467 550.191 440.467H564.342C564.496 440.466 564.649 440.435 564.791 440.375C564.933 440.315 565.061 440.228 565.17 440.118C565.278 440.009 565.363 439.879 565.421 439.736C565.479 439.593 565.508 439.44 565.507 439.286V365.388C565.507 364.736 564.991 364.211 564.342 364.211V364.211ZM453.797 365.892C448.772 365.892 444.694 370 444.694 375.086C444.694 380.165 448.772 384.285 453.797 384.285C458.827 384.285 462.902 380.165 462.902 375.086C462.902 370 458.824 365.892 453.797 365.892ZM460.725 388.41H446.648C446.002 388.41 445.425 389.076 445.425 389.723V438.595C445.425 440.031 446.32 440.458 447.478 440.458H460.158C461.552 440.458 461.892 439.774 461.892 438.571V423.698V389.589C461.893 389.435 461.863 389.283 461.805 389.14C461.747 388.998 461.661 388.869 461.552 388.759C461.444 388.65 461.315 388.563 461.173 388.504C461.031 388.444 460.879 388.413 460.725 388.413V388.41ZM619.177 388.521H605.161C605.007 388.522 604.855 388.553 604.713 388.613C604.572 388.673 604.443 388.761 604.335 388.87C604.227 388.98 604.142 389.11 604.084 389.253C604.026 389.395 603.997 389.548 603.998 389.702V425.936C603.998 425.936 600.436 428.538 595.385 428.538C590.334 428.538 588.994 426.248 588.994 421.3V389.702C588.995 389.548 588.966 389.395 588.908 389.252C588.85 389.109 588.765 388.979 588.656 388.87C588.548 388.76 588.419 388.673 588.277 388.613C588.135 388.553 587.983 388.521 587.829 388.521H573.607C573.296 388.523 572.998 388.649 572.78 388.87C572.561 389.091 572.439 389.391 572.44 389.702V423.691C572.44 438.386 580.631 441.981 591.898 441.981C601.141 441.981 608.595 436.872 608.595 436.872C608.595 436.872 608.946 439.567 609.11 439.884C609.274 440.203 609.689 440.524 610.141 440.524L619.188 440.484C619.343 440.483 619.496 440.452 619.638 440.392C619.781 440.333 619.91 440.246 620.019 440.136C620.128 440.026 620.214 439.896 620.272 439.753C620.331 439.61 620.361 439.457 620.36 439.303L620.353 389.695C620.352 389.384 620.228 389.086 620.009 388.866C619.789 388.646 619.492 388.521 619.181 388.518L619.177 388.521ZM657.478 386.861C649.519 386.861 644.105 390.412 644.105 390.412V365.388C644.106 365.234 644.076 365.081 644.018 364.939C643.96 364.796 643.875 364.666 643.766 364.557C643.658 364.448 643.53 364.36 643.388 364.301C643.246 364.241 643.094 364.21 642.94 364.209H628.781C628.627 364.209 628.474 364.239 628.331 364.299C628.189 364.358 628.059 364.445 627.95 364.555C627.841 364.664 627.755 364.794 627.697 364.937C627.638 365.08 627.608 365.233 627.609 365.388V439.286C627.608 439.441 627.638 439.594 627.697 439.737C627.755 439.88 627.841 440.01 627.95 440.119C628.059 440.229 628.189 440.316 628.331 440.375C628.474 440.435 628.627 440.465 628.781 440.465H638.606C639.052 440.465 639.384 440.238 639.631 439.837C639.872 439.438 640.226 436.429 640.226 436.429C640.226 436.429 646.015 441.913 656.979 441.913C669.846 441.913 677.229 435.388 677.229 412.612C677.229 389.835 665.44 386.859 657.476 386.859L657.478 386.861ZM651.947 428.496C647.088 428.348 643.791 426.142 643.791 426.142V402.74C643.791 402.74 647.044 400.748 651.033 400.387C656.079 399.935 660.942 401.46 660.942 413.498C660.942 426.194 658.751 428.699 651.949 428.493L651.947 428.496ZM502.676 428.219C502.059 428.219 500.48 428.47 498.856 428.47C493.652 428.47 491.888 426.051 491.888 422.92V402.14H502.481C502.636 402.14 502.789 402.109 502.932 402.05C503.075 401.99 503.204 401.903 503.313 401.793C503.422 401.684 503.508 401.553 503.567 401.41C503.625 401.267 503.654 401.113 503.653 400.959V389.578C503.654 389.423 503.624 389.27 503.565 389.128C503.507 388.985 503.42 388.855 503.312 388.746C503.203 388.637 503.073 388.55 502.931 388.491C502.788 388.431 502.636 388.401 502.481 388.401H491.888L491.871 374.409C491.871 373.877 491.599 373.612 490.985 373.612H476.548C475.99 373.612 475.688 373.86 475.688 374.397V388.858C475.688 388.858 468.452 390.604 467.965 390.745C467.721 390.816 467.508 390.964 467.356 391.167C467.203 391.369 467.121 391.616 467.121 391.87V400.956C467.12 401.11 467.15 401.263 467.208 401.405C467.266 401.548 467.351 401.678 467.459 401.787C467.568 401.897 467.696 401.984 467.838 402.043C467.98 402.103 468.132 402.134 468.286 402.135H475.688V423.998C475.688 440.24 487.078 441.834 494.766 441.834C498.274 441.834 502.477 440.709 503.17 440.451C503.592 440.294 503.834 439.86 503.834 439.389L503.843 429.393C503.838 429.083 503.713 428.788 503.495 428.568C503.276 428.349 502.981 428.223 502.671 428.217L502.676 428.219Z" fill="white"/>
</svg>
