<svg width="1280" height="848" viewBox="0 0 1280 848" fill="none" xmlns="http://www.w3.org/2000/svg">
<rect width="1280" height="848" fill="#1A1A1A"/>
<path d="M806.3 645.9C806.3 653.5 800.1 659.7 792.5 659.7H487.5C479.9 659.7 473.7 653.5 473.7 645.9V202.1C473.7 194.5 479.9 188.3 487.5 188.3H717.6V277H806.3V645.9Z" fill="white"/>
<path d="M717.6 174H487.5C472 174 459.4 186.6 459.4 202.1V645.9C459.4 661.4 472 674 487.5 674H792.5C808 674 820.6 661.4 820.6 645.9V277.1L717.6 174ZM806.3 645.9C806.3 653.5 800.1 659.7 792.5 659.7H487.5C479.9 659.7 473.7 653.5 473.7 645.9V202.1C473.7 194.5 479.9 188.3 487.5 188.3H717.6V277H806.3V645.9Z" fill="#2B669F"/>
<path d="M717.6 174V277.1H820.6L717.6 174Z" fill="#084272"/>
<path d="M849.9 618.8H430.1V476C430.1 466.2 438 458.3 447.8 458.3H832.1C841.9 458.3 849.8 466.2 849.8 476V618.8H849.9Z" fill="#084272"/>
<path d="M820.6 618.8V638.3L849.9 618.8H820.6ZM459.4 618.8V638.3L430.1 618.8H459.4Z" fill="#1A252D"/>
<path d="M448.1 476.4H831.8V600.9H448.1V476.4Z" fill="#2B669F"/>
<path d="M682.3 246.6H505.3C503.523 246.6 501.819 245.894 500.562 244.638C499.306 243.381 498.6 241.677 498.6 239.9C498.6 238.123 499.306 236.419 500.562 235.163C501.819 233.906 503.523 233.2 505.3 233.2H682.3C684.077 233.2 685.781 233.906 687.038 235.163C688.294 236.419 689 238.123 689 239.9C689 241.677 688.294 243.381 687.038 244.638C685.781 245.894 684.077 246.6 682.3 246.6V246.6ZM682.3 278.6H505.3C503.523 278.6 501.819 277.894 500.562 276.638C499.306 275.381 498.6 273.677 498.6 271.9C498.6 270.123 499.306 268.419 500.562 267.163C501.819 265.906 503.523 265.2 505.3 265.2H682.3C684.077 265.2 685.781 265.906 687.038 267.163C688.294 268.419 689 270.123 689 271.9C689 273.677 688.294 275.381 687.038 276.638C685.781 277.894 684.077 278.6 682.3 278.6V278.6ZM775.8 310.5H505.3C503.523 310.5 501.819 309.794 500.562 308.538C499.306 307.281 498.6 305.577 498.6 303.8C498.6 302.023 499.306 300.319 500.562 299.063C501.819 297.806 503.523 297.1 505.3 297.1H775.8C777.577 297.1 779.281 297.806 780.538 299.063C781.794 300.319 782.5 302.023 782.5 303.8C782.5 305.577 781.794 307.281 780.538 308.538C779.281 309.794 777.577 310.5 775.8 310.5ZM775.8 342.5H505.3C503.523 342.5 501.819 341.794 500.562 340.538C499.306 339.281 498.6 337.577 498.6 335.8C498.6 334.023 499.306 332.319 500.562 331.063C501.819 329.806 503.523 329.1 505.3 329.1H775.8C777.577 329.1 779.281 329.806 780.538 331.063C781.794 332.319 782.5 334.023 782.5 335.8C782.5 337.577 781.794 339.281 780.538 340.538C779.281 341.794 777.577 342.5 775.8 342.5ZM775.8 374.5H505.3C503.523 374.5 501.819 373.794 500.562 372.538C499.306 371.281 498.6 369.577 498.6 367.8C498.6 366.023 499.306 364.319 500.562 363.063C501.819 361.806 503.523 361.1 505.3 361.1H775.8C777.577 361.1 779.281 361.806 780.538 363.063C781.794 364.319 782.5 366.023 782.5 367.8C782.5 369.577 781.794 371.281 780.538 372.538C779.281 373.794 777.577 374.5 775.8 374.5ZM775.8 406.4H505.3C503.523 406.4 501.819 405.694 500.562 404.438C499.306 403.181 498.6 401.477 498.6 399.7C498.6 397.923 499.306 396.219 500.562 394.963C501.819 393.706 503.523 393 505.3 393H775.8C777.577 393 779.281 393.706 780.538 394.963C781.794 396.219 782.5 397.923 782.5 399.7C782.5 401.477 781.794 403.181 780.538 404.438C779.281 405.694 777.577 406.4 775.8 406.4V406.4ZM775.8 438.4H505.3C503.523 438.4 501.819 437.694 500.562 436.438C499.306 435.181 498.6 433.477 498.6 431.7C498.6 429.923 499.306 428.219 500.562 426.963C501.819 425.706 503.523 425 505.3 425H775.8C777.577 425 779.281 425.706 780.538 426.963C781.794 428.219 782.5 429.923 782.5 431.7C782.5 433.477 781.794 435.181 780.538 436.438C779.281 437.694 777.577 438.4 775.8 438.4V438.4Z" fill="#2B669F"/>
<path d="M575.6 517.7V561.6C575.6 567 574.2 571.2 571.3 574.1C568.4 577 564.4 578.5 559.2 578.5C558 578.5 557 578.4 556 578.3C555 578.2 554 578 552.9 577.8L553.5 567.6C554.3 567.8 554.9 567.9 555.5 568C556.1 568.1 556.7 568.1 557.6 568.1C559.1 568.1 560.2 567.6 561 566.5C561.8 565.4 562.2 563.8 562.2 561.7V517.8H575.6V517.7ZM575.3 507.7H561.7V498.6H575.3V507.7ZM611.5 548.9C611.5 547.8 610.9 546.9 609.7 546C608.5 545.2 606.3 544.4 603.1 543.7C598.1 542.7 594.2 541.2 591.7 539.1C589.1 537 587.9 534.2 587.9 530.5C587.9 526.7 589.5 523.4 592.7 520.8C595.9 518.1 600.2 516.8 605.7 516.8C611.5 516.8 616.1 518.1 619.5 520.7C622.9 523.3 624.5 526.6 624.4 530.7L624.3 530.9H611.2C611.2 529.2 610.8 527.9 609.9 527C609 526.1 607.6 525.7 605.7 525.7C604.3 525.7 603.1 526.1 602.1 526.9C601.1 527.7 600.7 528.7 600.7 529.9C600.7 531 601.3 532 602.4 532.8C603.5 533.6 605.7 534.3 609.1 535C614.4 536 618.3 537.6 620.9 539.7C623.4 541.8 624.7 544.7 624.7 548.5C624.7 552.4 623 555.6 619.5 558.1C616 560.6 611.5 561.9 605.8 561.9C599.9 561.9 595.2 560.4 591.8 557.4C588.4 554.4 586.7 551.1 586.9 547.4L587 547.2H599.3C599.4 549.3 600 550.7 601.2 551.6C602.4 552.5 604.1 553 606.3 553C608.1 553 609.5 552.6 610.4 551.9C611 551.2 611.5 550.2 611.5 548.9V548.9ZM634.8 539C634.8 532.5 636.6 527.2 640.3 523.1C644 519 649.1 517 655.7 517C662.3 517 667.5 519 671.2 523.1C674.9 527.2 676.7 532.5 676.7 539V539.8C676.7 546.3 674.9 551.7 671.2 555.7C667.5 559.8 662.4 561.8 655.8 561.8C649.2 561.8 644 559.8 640.3 555.7C636.6 551.6 634.8 546.3 634.8 539.8V539ZM648.4 539.9C648.4 543.5 649 546.4 650.1 548.5C651.2 550.6 653.2 551.6 655.9 551.6C658.5 551.6 660.4 550.6 661.6 548.5C662.7 546.4 663.3 543.6 663.3 540V539C663.3 535.5 662.7 532.7 661.6 530.5C660.5 528.4 658.5 527.3 655.8 527.3C653.1 527.3 651.2 528.4 650.1 530.5C649 532.6 648.4 535.5 648.4 539V539.9ZM701 517.7L701.5 523.8C702.9 521.6 704.7 519.9 706.7 518.7C708.8 517.5 711.1 516.9 713.7 516.9C717.9 516.9 721.3 518.3 723.7 521.2C726.1 524.1 727.3 528.7 727.3 534.9V561H713.8V535C713.8 532.2 713.4 530.3 712.5 529.1C711.6 527.9 710.3 527.4 708.7 527.4C707.3 527.4 706 527.7 704.8 528.2C703.7 528.7 702.7 529.4 701.9 530.4V561.2H688.4V517.9H701V517.7Z" fill="white"/>
</svg>
