<svg width="1156" height="584" viewBox="0 0 1156 584" fill="none" xmlns="http://www.w3.org/2000/svg">
<rect width="1156" height="584" fill="#1A1A1A"/>
<path d="M449.229 337.577C420.181 325.67 402.417 309.744 402.417 292.255C402.417 255.417 481.236 225.508 578.312 225.508C675.388 225.508 754.207 255.417 754.207 292.255C754.207 329.093 675.388 359.002 578.312 359.002C527.322 359.002 481.368 350.75 449.229 337.577Z" stroke="#04A5D0" stroke-width="22.4823" stroke-linecap="round" stroke-linejoin="round"/>
<path d="M473.653 376.833C478.552 343.493 494.398 301.39 519.759 259.15C568.796 177.479 634.961 126.019 667.416 144.308C699.872 162.597 686.41 243.756 637.373 325.427C588.337 407.098 522.172 458.558 489.716 440.269C474.046 431.44 469.08 407.954 473.653 376.833Z" stroke="#04A5D0" stroke-width="22.4823" stroke-linecap="round" stroke-linejoin="round"/>
<path d="M565.063 386.561C549.521 369.359 534.174 348.874 520.167 325.981C470.443 244.709 456.306 163.657 488.618 145.102C520.931 126.546 587.539 177.467 637.263 258.739C686.987 340.011 701.124 421.063 668.812 439.618C645.601 452.947 604.696 430.428 565.063 386.561Z" stroke="#04A5D0" stroke-width="22.4823" stroke-linecap="round" stroke-linejoin="round"/>
<path d="M578.387 258.441C597.615 258.441 613.226 273.586 613.226 292.239C613.226 310.891 597.615 326.036 578.387 326.036C559.159 326.036 543.547 310.891 543.547 292.239C543.547 273.586 559.159 258.441 578.387 258.441Z" fill="#04A5D0"/>
</svg>
