<svg width="2080" height="976" viewBox="0 0 2080 976" fill="none" xmlns="http://www.w3.org/2000/svg">
<rect width="2080" height="976" fill="#1A1A1A"/>
<path d="M390 336.75V638.25H707.188L999 336.75H390Z" fill="#1976D2"/>
<path d="M738.906 412.125H681.812V500.062V525.188V531.469L633.6 412.125H589.194L550.015 511.155C544.876 489.146 521.354 480.792 506.725 477.45C468.662 467.4 466.125 462.375 466.125 454.837C466.125 435.994 516.875 444.787 529.562 449.812C533.369 439.762 540.981 420.919 540.981 420.919C540.981 420.919 527.025 412.125 483.888 412.125C440.75 412.125 428.062 438.506 428.062 454.837C428.062 471.169 436.944 490.012 461.05 497.55C486.425 505.087 505.456 506.344 505.456 518.906C505.456 531.469 462.319 533.981 438.212 518.906L428.062 551.569C428.062 551.569 442.019 562.875 483.888 562.875C506.484 562.875 524.069 556.556 535.652 547.473L529.562 562.875H573.969L581.581 540.263C590.463 544.031 600.613 546.544 612.031 546.544C623.45 546.544 633.6 544.031 642.481 540.263L650.094 562.875H681.812H694.5H719.875V525.188H738.906C770.625 525.188 796 500.062 796 468.656C796 437.25 770.625 412.125 738.906 412.125ZM612.031 513.881C604.419 513.881 598.075 512.625 593 508.856L612.031 454.837L631.062 508.856C625.987 512.625 619.644 513.881 612.031 513.881ZM738.906 487.5H719.875V449.812H738.906C749.056 449.812 757.938 458.606 757.938 468.656C757.938 478.706 749.056 487.5 738.906 487.5Z" fill="white"/>
<path d="M1007.29 458.727C1006.61 452.97 1003.84 448.5 998.994 445.318C994.146 442.136 988.199 440.545 981.153 440.545C976.002 440.545 971.494 441.379 967.631 443.045C963.805 444.712 960.813 447.004 958.653 449.92C956.532 452.837 955.472 456.152 955.472 459.864C955.472 462.97 956.21 465.64 957.688 467.875C959.203 470.072 961.134 471.909 963.483 473.386C965.831 474.826 968.294 476.019 970.869 476.966C973.445 477.875 975.812 478.614 977.972 479.182L989.79 482.364C992.82 483.159 996.191 484.258 999.903 485.659C1003.65 487.061 1007.23 488.973 1010.64 491.398C1014.09 493.784 1016.93 496.852 1019.16 500.602C1021.4 504.352 1022.52 508.955 1022.52 514.409C1022.52 520.697 1020.87 526.379 1017.57 531.455C1014.32 536.53 1009.54 540.564 1003.26 543.557C997.006 546.549 989.411 548.045 980.472 548.045C972.138 548.045 964.922 546.701 958.824 544.011C952.763 541.322 947.991 537.572 944.506 532.761C941.059 527.951 939.108 522.364 938.653 516H953.199C953.578 520.394 955.055 524.03 957.631 526.909C960.244 529.75 963.54 531.871 967.517 533.273C971.532 534.636 975.85 535.318 980.472 535.318C985.85 535.318 990.68 534.447 994.96 532.705C999.241 530.924 1002.63 528.462 1005.13 525.318C1007.63 522.136 1008.88 518.424 1008.88 514.182C1008.88 510.318 1007.8 507.174 1005.64 504.75C1003.48 502.326 1000.64 500.356 997.119 498.841C993.597 497.326 989.79 496 985.699 494.864L971.381 490.773C962.29 488.159 955.093 484.428 949.79 479.58C944.487 474.731 941.835 468.386 941.835 460.545C941.835 454.03 943.597 448.348 947.119 443.5C950.68 438.614 955.453 434.826 961.438 432.136C967.46 429.409 974.184 428.045 981.608 428.045C989.108 428.045 995.775 429.39 1001.61 432.08C1007.44 434.731 1012.06 438.367 1015.47 442.989C1018.92 447.61 1020.74 452.856 1020.93 458.727H1007.29ZM1085 424.182L1047.5 563.5H1035.23L1072.73 424.182H1085ZM1097.94 522.136V510.545L1149.08 429.636H1157.49V447.591H1151.81L1113.17 508.727V509.636H1182.03V522.136H1097.94ZM1152.72 546V518.614V513.216V429.636H1166.12V546H1152.72ZM1250.37 546V429.636H1264.46V481.455H1326.51V429.636H1340.6V546H1326.51V493.955H1264.46V546H1250.37ZM1373.58 546H1358.81L1401.54 429.636H1416.08L1458.81 546H1444.04L1409.26 448.045H1408.36L1373.58 546ZM1379.04 500.545H1438.58V513.045H1379.04V500.545ZM1569.21 429.636V546H1555.57L1492.16 454.636H1491.03V546H1476.93V429.636H1490.57L1554.21 521.227H1555.34V429.636H1569.21ZM1602.18 546H1587.4L1630.13 429.636H1644.68L1687.4 546H1672.63L1637.86 448.045H1636.95L1602.18 546ZM1607.63 500.545H1667.18V513.045H1607.63V500.545Z" fill="white"/>
</svg>
