<svg width="1056" height="776" viewBox="0 0 1056 776" fill="none" xmlns="http://www.w3.org/2000/svg">
<rect width="1056" height="776" fill="#1A1A1A"/>
<path d="M228.418 324.601V331.057H215.075V335.256H228.418V348.115H233.633V335.256H247.309V331.057H233.633V318.172H228.418V324.601Z" fill="#7099A6"/>
<path d="M184.812 340.977V350.346H164.617V356.224H184.812V375.251H192.302V356.224H212.801V350.346H192.302V331.608H184.812V340.977Z" fill="#EB912C"/>
<path d="M269.445 340.977V350.346H249.25V356.513H269.445V375.251H277.238V356.513H297.434V350.346H277.238V331.608H269.445V340.977Z" fill="#59879B"/>
<path d="M226.477 372.889V383.386H204.007V391.206H226.477V412.201H235.574V391.206H258.043V383.386H235.574V362.392H226.477V372.889Z" fill="#E8762C"/>
<path d="M292.552 378.19V384.777H278.876V390.104H292.552V403.252H299.375V390.104H313.051V384.777H299.375V371.629H292.552V378.19Z" fill="#5B6591"/>
<path d="M162.342 378.767V385.065H149V389.527H162.342V402.123H167.558V389.527L181.234 389.107V385.065H167.558V372.469H162.342V378.767Z" fill="#7099A6"/>
<path d="M184.812 408.422V417.79H164.617V423.957H184.812V442.695H192.605V423.957H212.801V417.79H192.605V399.053H184.812V408.422Z" fill="#C72035"/>
<path d="M269.445 408.422V417.79H249.25V423.669H269.445V442.695H277.238V423.669H297.434V417.79H277.238V399.053H269.445V408.422Z" fill="#1F447E"/>
<path d="M227.78 432.225V438.785H214.104V444.113H227.78V457.261H234.603V444.113H248.279V438.785H234.603V425.638H227.78V432.225Z" fill="#5B6591"/>
<path d="M648.307 346.147V425.926H637.906V346.147H648.307ZM389.86 357.353V382.809H417.848V391.207H389.86V418.631H379.459V391.207H351.47V382.809H379.459V357.353H389.86ZM715.383 374.831C717.263 374.91 719.659 375.172 720.75 375.408C721.812 375.645 723.571 376.196 724.632 376.642C725.724 377.062 727.482 377.98 728.544 378.689C729.635 379.397 731.151 380.71 731.94 381.602C732.728 382.494 733.85 384.121 734.457 385.197C735.063 386.273 735.852 388.163 736.215 389.396C736.579 390.629 737.004 393.123 737.337 398.214H701.374L701.586 399.263C701.677 399.841 702.071 401.074 702.374 401.993C702.708 402.911 703.557 404.355 704.224 405.168C704.891 405.982 705.892 406.953 706.407 407.294C706.953 407.635 708.045 408.212 708.864 408.58C709.652 408.921 711.047 409.367 711.957 409.577C712.866 409.787 715.292 409.971 717.475 409.971C719.628 409.971 722.721 409.787 724.329 409.551C725.936 409.315 728.21 408.842 729.362 408.527C730.515 408.212 732.031 407.714 732.698 407.425C733.365 407.136 734.063 406.874 734.244 406.874C734.448 406.874 734.568 408.341 734.577 414.432L734.578 415.272L732.789 415.98C731.788 416.374 729.726 417.004 728.149 417.397C726.573 417.765 723.692 418.237 721.721 418.421C719.022 418.657 717.203 418.657 714.382 418.421C712.32 418.237 709.318 417.765 707.711 417.371C706.104 416.978 703.769 416.19 702.556 415.613C701.313 415.036 699.221 413.697 697.886 412.621C696.522 411.545 694.824 409.787 694.035 408.711C693.247 407.635 692.277 405.798 691.822 404.643C691.367 403.489 690.821 401.468 690.609 400.182C690.366 398.739 690.306 396.718 690.427 395.143C690.518 393.674 690.912 391.469 691.276 390.236C691.64 389.002 692.519 386.982 693.217 385.748C693.914 384.515 695.218 382.757 696.067 381.838C696.946 380.92 698.675 379.502 699.918 378.689C701.161 377.875 703.254 376.852 704.558 376.379C705.831 375.907 708.045 375.356 709.44 375.12C711.108 374.857 713.109 374.752 715.383 374.831ZM823.426 374.411V388.478C823.426 396.219 823.335 405.483 822.941 415.587L820.333 416.269C818.908 416.636 816.027 417.214 813.904 417.502C811.206 417.922 808.628 418.08 805.141 418.08C802.381 418.08 799.197 417.949 798.045 417.791C796.893 417.607 794.619 417.109 793.011 416.663C791.283 416.19 789.039 415.272 787.644 414.484C786.28 413.723 784.4 412.385 783.429 411.466C782.489 410.574 781.155 409 780.518 408.002C779.881 407.005 779.002 405.168 778.577 403.961C777.941 402.203 777.759 400.838 777.607 397.663C777.516 395.117 777.607 392.86 777.85 391.627C778.062 390.551 778.608 388.74 779.063 387.585C779.487 386.431 780.488 384.594 781.276 383.518C782.034 382.442 783.672 380.736 784.915 379.739C786.31 378.636 788.129 377.508 789.615 376.878C790.949 376.327 792.89 375.645 793.982 375.382C795.043 375.146 797.681 374.857 799.834 374.779C802.715 374.674 804.383 374.779 806.172 375.094C807.536 375.356 809.568 375.933 810.751 376.406C811.903 376.852 812.904 377.246 812.934 377.219C812.99 377.219 813.02 376.69 813.024 376.016L813.025 374.411H823.426ZM501.511 374.411L501.511 391.91L501.507 393.737C501.484 401.952 501.353 410.013 501.026 415.587L498.418 416.269C496.993 416.636 493.991 417.214 491.747 417.555C488.32 418.053 486.774 418.106 481.831 418.001C477.252 417.896 475.403 417.739 473.371 417.292C471.915 416.951 469.429 416.138 467.822 415.455C466.124 414.721 464.092 413.566 462.94 412.7C461.878 411.86 460.362 410.364 459.634 409.393C458.876 408.396 457.876 406.821 457.451 405.903C457.026 404.984 456.39 403.147 456.086 401.862C455.662 399.972 455.571 398.581 455.692 395.275C455.844 392.099 456.056 390.551 456.572 388.976C456.966 387.821 457.876 385.932 458.573 384.777C459.27 383.623 460.665 381.864 461.696 380.893C462.758 379.896 464.486 378.584 465.547 377.954C466.609 377.35 468.368 376.537 469.459 376.17C470.52 375.802 472.461 375.304 473.765 375.094C475.069 374.884 477.495 374.7 479.132 374.7C480.8 374.7 483.165 374.91 484.439 375.12C485.682 375.356 487.653 375.933 488.836 376.406C489.988 376.852 490.989 377.246 491.019 377.219C491.05 377.219 491.11 376.589 491.11 375.828V374.411H501.511ZM562.371 354.545L562.372 367.881C562.383 376.106 562.471 376.632 562.947 376.511C563.28 376.406 564.857 376.038 566.464 375.645C568.375 375.199 570.679 374.91 573.135 374.779C575.925 374.674 577.563 374.752 579.625 375.094C581.383 375.382 583.476 376.012 585.325 376.799C586.933 377.482 589.055 378.636 590.056 379.397C591.026 380.132 592.573 381.681 593.452 382.835C594.362 383.99 595.484 385.827 595.969 386.955C596.485 388.058 597.121 390.131 597.425 391.574C597.788 393.464 597.879 395.091 597.758 397.663C597.667 399.578 597.334 401.966 597.03 402.964C596.757 403.961 596.03 405.667 595.454 406.743C594.877 407.819 593.725 409.472 592.906 410.391C592.118 411.309 590.511 412.674 589.358 413.435C588.237 414.196 586.174 415.245 584.84 415.77C583.506 416.321 581.292 417.004 579.958 417.319C577.866 417.817 576.532 417.896 570.528 417.922C564.857 417.949 563.007 417.844 560.763 417.424C559.247 417.135 556.73 416.584 555.214 416.216C553.698 415.849 552.364 415.429 552.242 415.324C552.121 415.219 551.97 401.52 551.909 384.856L551.788 354.545H562.371ZM874.552 375.54L874.521 389.606L874.521 390.712C874.521 390.891 874.521 391.068 874.521 391.243L874.523 393.225C874.532 401.959 874.595 403.638 874.993 404.982L875.037 405.125C875.074 405.243 875.115 405.361 875.158 405.483C875.552 406.533 876.28 407.766 876.886 408.396C877.463 408.973 878.675 409.761 879.585 410.128C880.465 410.495 882.163 410.915 883.315 411.047C884.558 411.204 886.317 411.204 887.56 411.047C888.713 410.915 890.411 410.495 891.29 410.128C892.2 409.761 893.413 408.973 893.989 408.396C894.595 407.766 895.353 406.533 895.717 405.483C895.766 405.347 895.811 405.215 895.852 405.075L895.883 404.968C896.26 403.584 896.336 401.085 896.351 385.536L896.352 384.281C896.352 384.067 896.352 383.851 896.352 383.633L896.354 380.178C896.354 379.935 896.354 379.69 896.354 379.443L896.354 375.54H906.998L906.937 390.734C906.91 403.413 906.884 405.587 906.462 407.021L906.423 407.148C906.403 407.21 906.383 407.272 906.361 407.334L906.317 407.457L906.27 407.583C905.906 408.501 905.148 409.892 904.572 410.653C903.996 411.44 902.995 412.516 902.298 413.094C901.63 413.671 900.175 414.589 899.114 415.141C898.052 415.692 895.99 416.453 894.565 416.846C892.928 417.292 890.744 417.634 888.713 417.765C886.893 417.844 883.982 417.844 882.193 417.739C880.161 417.634 877.948 417.292 876.341 416.846C874.885 416.453 872.853 415.692 871.762 415.141C870.7 414.589 869.275 413.671 868.578 413.094C867.911 412.516 866.88 411.44 866.303 410.653C865.758 409.892 865 408.501 864.636 407.583L864.611 407.521L864.563 407.398C864.517 407.276 864.474 407.154 864.434 407.025L864.395 406.894C863.989 405.448 863.955 402.967 863.878 390.734L863.756 375.54H874.552ZM802.594 383.124C801.441 383.124 799.683 383.334 798.712 383.544C797.712 383.78 796.195 384.305 795.316 384.725C794.437 385.145 793.163 386.011 792.466 386.667C791.768 387.323 790.858 388.478 790.404 389.265C789.949 390.026 789.373 391.443 789.1 392.414C788.827 393.359 788.615 395.222 788.615 396.534C788.615 397.846 788.827 399.71 789.1 400.654C789.373 401.625 789.888 402.937 790.282 403.594C790.677 404.25 791.677 405.404 792.496 406.139C793.315 406.9 794.649 407.792 795.437 408.134C796.256 408.501 797.712 409 798.712 409.236C799.834 409.524 801.684 409.682 803.837 409.682C805.656 409.682 808.234 409.551 809.507 409.393C810.811 409.236 812.055 409 812.237 408.895C812.51 408.763 812.661 405.378 812.752 397.269L812.843 385.801C809.568 384.357 807.749 383.754 806.657 383.518C805.596 383.281 803.776 383.098 802.594 383.124ZM476.767 383.544C475.797 383.78 474.281 384.305 473.401 384.725C472.522 385.145 471.248 386.011 470.551 386.667C469.853 387.323 468.913 388.478 468.489 389.265C468.034 390.026 467.458 391.443 467.185 392.414C466.912 393.359 466.7 395.091 466.7 396.245C466.7 397.4 466.851 399.106 467.033 400.024C467.246 400.943 467.791 402.465 468.307 403.384C468.913 404.486 469.884 405.614 471.127 406.612C472.34 407.583 473.765 408.396 475.008 408.816C476.525 409.341 477.737 409.498 480.861 409.629C483.074 409.708 485.864 409.603 487.35 409.42C488.775 409.236 490.11 409 490.322 408.895C490.564 408.763 490.746 405.116 490.898 397.295L491.11 385.906C488.442 384.646 486.956 384.069 486.046 383.806C485.167 383.518 483.105 383.255 481.498 383.203C479.496 383.124 478.01 383.229 476.767 383.544ZM572.317 383.124C571.073 383.15 569.436 383.281 568.738 383.413C568.011 383.544 566.343 383.99 564.978 384.41L562.552 385.145V408.422C567.647 409.577 568.738 409.656 572.135 409.577C575.47 409.498 576.562 409.367 578.169 408.842C579.23 408.475 580.716 407.792 581.414 407.294C582.141 406.821 583.172 405.929 583.718 405.326C584.264 404.722 585.053 403.462 585.447 402.544C585.871 401.625 586.356 399.867 586.538 398.634C586.811 396.954 586.811 395.799 586.508 394.015C586.266 392.414 585.75 390.971 584.992 389.606C584.385 388.478 583.324 387.087 582.657 386.509C581.99 385.932 580.777 385.118 579.958 384.725C579.17 384.305 577.623 383.78 576.532 383.544C575.47 383.281 573.56 383.098 572.317 383.124ZM711.775 383.518C710.804 383.754 709.227 384.357 708.257 384.856C707.287 385.355 705.922 386.326 705.194 387.008C704.497 387.716 703.557 388.871 703.132 389.606C702.708 390.341 702.344 391.049 702.344 391.207C702.344 391.382 706.057 391.485 712.933 391.495L725.633 391.495C725.299 389.422 724.996 388.399 724.753 387.848C724.48 387.323 723.692 386.326 722.994 385.67C722.145 384.856 721.114 384.279 719.932 383.885C718.931 383.596 717.112 383.281 715.868 383.203C714.413 383.15 712.927 383.255 711.775 383.518Z" fill="#1F447E"/>
</svg>
