<svg width="36" height="38" viewBox="0 0 36 38" fill="none" xmlns="http://www.w3.org/2000/svg">
<ellipse cx="18.5" cy="23.5" rx="13.5" ry="12.5" fill="white"/>
<ellipse cx="28" cy="31" rx="8" ry="7" fill="white"/>
<ellipse cx="18.5" cy="9" rx="9.5" ry="9" fill="white"/>
<ellipse cx="3" cy="33.5" rx="3" ry="2.5" fill="white"/>
<path d="M22.5146 18.8926C22.5342 18.9316 22.5439 19.0684 22.5439 19.3027C22.5537 19.5371 22.5537 19.8203 22.5439 20.1523C22.5439 20.4844 22.5342 20.8408 22.5146 21.2217C22.4951 21.5928 22.4707 21.9443 22.4414 22.2764C22.4219 22.4619 22.3877 22.7402 22.3389 23.1113C22.2998 23.4824 22.251 23.8926 22.1924 24.3418C22.1338 24.791 22.0703 25.2549 22.002 25.7334C21.9434 26.2021 21.8848 26.6367 21.8262 27.0371C21.7676 27.4277 21.7139 27.7549 21.665 28.0186C21.626 28.2822 21.5967 28.4238 21.5771 28.4434C21.5381 28.4727 21.4746 28.5459 21.3867 28.6631C21.2988 28.7705 21.2012 28.8828 21.0938 29C20.9961 29.1074 20.9033 29.1953 20.8154 29.2637C20.7275 29.332 20.6689 29.3418 20.6396 29.293C20.6201 29.1953 20.6104 28.8926 20.6104 28.3848C20.6104 28.1699 20.6104 27.9014 20.6104 27.5791C20.6201 27.2471 20.6299 26.8467 20.6396 26.3779C20.6592 25.9092 20.6836 25.3623 20.7129 24.7373C20.7422 24.1123 20.7764 23.3896 20.8154 22.5693C20.6201 23.2334 20.4443 23.8193 20.2881 24.3271C20.1416 24.835 20.0098 25.2793 19.8926 25.6602C19.7852 26.0312 19.6924 26.3486 19.6143 26.6123C19.5361 26.8662 19.4678 27.0762 19.4092 27.2422C19.2822 27.6328 19.1992 27.8623 19.1602 27.9307C19.1211 27.9404 19.0576 27.9111 18.9697 27.8428C18.8916 27.7744 18.7988 27.6768 18.6914 27.5498C18.5938 27.4131 18.4912 27.252 18.3838 27.0664C18.2861 26.8809 18.2031 26.6758 18.1348 26.4512C18.0664 26.2461 17.9785 25.9727 17.8711 25.6309C17.7734 25.3379 17.6465 24.957 17.4902 24.4883C17.334 24.0098 17.1436 23.4141 16.9189 22.7012C16.9775 23.502 17.0264 24.2051 17.0654 24.8105C17.1045 25.416 17.1338 25.9434 17.1533 26.3926C17.1826 26.8418 17.2021 27.2227 17.2119 27.5352C17.2314 27.8379 17.2412 28.0918 17.2412 28.2969C17.251 28.7656 17.2363 29.0342 17.1973 29.1025C17.0996 29.1025 16.9922 29.0586 16.875 28.9707C16.7676 28.873 16.6602 28.7607 16.5527 28.6338C16.4551 28.4971 16.3672 28.3652 16.2891 28.2383C16.2207 28.1113 16.1816 28.0186 16.1719 27.96C16.1621 27.9209 16.1328 27.7402 16.084 27.418C16.0352 27.0957 15.9766 26.6855 15.9082 26.1875C15.8496 25.6797 15.7812 25.1133 15.7031 24.4883C15.6348 23.8535 15.5664 23.209 15.498 22.5547C15.4395 21.9004 15.3906 21.2656 15.3516 20.6504C15.3125 20.0254 15.293 19.4688 15.293 18.9805C15.293 18.9023 15.3906 18.7998 15.5859 18.6729C15.7812 18.5361 16.001 18.4092 16.2451 18.292C16.499 18.165 16.7334 18.0576 16.9482 17.9697C17.1631 17.8721 17.2949 17.8232 17.3438 17.8232C17.3828 17.8232 17.4219 17.9355 17.4609 18.1602C17.5098 18.3848 17.5635 18.668 17.6221 19.0098C17.6807 19.3516 17.7441 19.7324 17.8125 20.1523C17.8809 20.5723 17.959 20.9727 18.0469 21.3535C18.1152 21.7441 18.1982 22.1494 18.2959 22.5693C18.374 22.9307 18.4619 23.3311 18.5596 23.7705C18.667 24.2002 18.7842 24.6201 18.9111 25.0303C19.0479 24.4346 19.1699 23.8975 19.2773 23.4189C19.3945 22.9307 19.4971 22.5156 19.585 22.1738C19.6924 21.7734 19.7852 21.417 19.8633 21.1045C20.0391 20.3428 20.21 19.7422 20.376 19.3027C20.5518 18.8633 20.6641 18.6045 20.7129 18.5264C20.7422 18.4873 20.8447 18.4775 21.0205 18.4971C21.2061 18.5166 21.4062 18.5508 21.6211 18.5996C21.8359 18.6387 22.0312 18.6875 22.207 18.7461C22.3926 18.8047 22.4951 18.8535 22.5146 18.8926Z" fill="#7B2BBA"/>
<path d="M25.7139 23.5947C26.2998 23.5361 26.7002 23.4971 26.915 23.4775C27.1299 23.4482 27.2471 23.4434 27.2666 23.4629C27.2861 23.4824 27.2861 23.5361 27.2666 23.624C27.2471 23.7021 27.2129 23.79 27.1641 23.8877C27.125 23.9854 27.0762 24.083 27.0176 24.1807C26.9688 24.2686 26.9297 24.332 26.9004 24.3711C26.8809 24.3809 26.7881 24.3906 26.6221 24.4004C26.4658 24.4102 26.2852 24.4199 26.0801 24.4297C25.8848 24.4395 25.6943 24.4443 25.5088 24.4443C25.333 24.4443 25.2256 24.4395 25.1865 24.4297C25.1084 24.4199 25.0352 24.3516 24.9668 24.2246C24.9082 24.0879 24.8691 23.9707 24.8496 23.873C24.8496 23.8438 24.8838 23.7217 24.9521 23.5068C25.0205 23.292 25.0986 23.0527 25.1865 22.7891C25.2744 22.5156 25.3574 22.2568 25.4355 22.0127C25.5234 21.7588 25.582 21.5928 25.6113 21.5146C25.6992 21.2607 25.7822 21.0117 25.8604 20.7676C25.9482 20.5137 26.0215 20.2842 26.0801 20.0791C26.1387 19.8643 26.1826 19.6885 26.2119 19.5518C26.2412 19.4053 26.2461 19.3125 26.2266 19.2734C26.1973 19.2344 26.1045 19.2539 25.9482 19.332C25.792 19.4102 25.626 19.5029 25.4502 19.6104C25.2744 19.7178 25.1084 19.8203 24.9521 19.918C24.7959 20.0156 24.7031 20.0645 24.6738 20.0645C24.6445 20.0645 24.625 20.0303 24.6152 19.9619C24.6055 19.8838 24.6006 19.7959 24.6006 19.6982C24.6006 19.5908 24.6055 19.4883 24.6152 19.3906C24.625 19.293 24.6396 19.2197 24.6592 19.1709C24.6787 19.1318 24.7617 19.0488 24.9082 18.9219C25.0645 18.7949 25.2402 18.668 25.4355 18.541C25.6406 18.4141 25.8408 18.3066 26.0361 18.2188C26.2412 18.1211 26.4023 18.082 26.5195 18.1016C26.5684 18.1113 26.6416 18.1553 26.7393 18.2334C26.8369 18.3018 26.9346 18.3799 27.0322 18.4678C27.1299 18.5557 27.2129 18.6436 27.2812 18.7314C27.3594 18.8193 27.4033 18.8779 27.4131 18.9072C27.4326 18.9463 27.4033 19.0879 27.3252 19.332C27.2471 19.5762 27.1445 19.8691 27.0176 20.2109C26.8906 20.5527 26.7539 20.9189 26.6074 21.3096C26.4609 21.7002 26.3193 22.0615 26.1826 22.3936C26.0557 22.7256 25.9434 23.0088 25.8457 23.2432C25.7578 23.4678 25.7139 23.585 25.7139 23.5947Z" fill="#7B2BBA"/>
</svg>
